<?xml version="1.0"?>
<svg xmlns="http://www.w3.org/2000/svg" id="Layer_1" enable-background="new 0 0 512 512" height="512px" viewBox="0 0 512 512" width="512px" class=""><g><g><path d="m87.034 375.996h1.643c19.402 0 36.353-8.781 47.729-24.726 9.434-13.222 14.629-30.721 14.629-49.274 0-36.773-21.419-74-62.357-74h-1.643c-8.284 0-15 6.716-15 15v118c-.001 8.284 6.715 15 14.999 15zm15-114.798c14.704 7.921 19 28.667 19 40.797 0 12.18-3.299 23.79-9.05 31.851-2.822 3.956-6.147 6.954-9.95 8.983z" data-original="#000000" class="active-path" data-old_color="#000000" fill="#FFFFFF"/><path d="m167.223 375.508c1.278.335 2.56.496 3.821.496 6.651 0 12.729-4.458 14.498-11.192l3.629-13.815h25.726l3.628 13.811c2.104 8.012 10.303 12.802 18.319 10.697 8.012-2.105 12.801-10.307 10.696-18.319l-30.999-118c-1.732-6.593-7.691-11.189-14.508-11.189s-12.775 4.596-14.508 11.189l-31 118.004c-2.103 8.011 2.686 16.213 10.698 18.318zm39.793-54.512h-9.964l4.982-18.964z" data-original="#000000" class="active-path" data-old_color="#000000" fill="#FFFFFF"/><path d="m278.034 375.996h1.643c19.402 0 36.353-8.781 47.729-24.726 9.434-13.222 14.628-30.721 14.628-49.274 0-36.773-21.419-74-62.356-74h-1.643c-8.284 0-15 6.716-15 15v118c-.001 8.284 6.715 15 14.999 15zm15-114.798c14.704 7.921 19 28.667 19 40.797 0 12.18-3.299 23.79-9.051 31.851-2.822 3.956-6.146 6.954-9.949 8.983z" data-original="#000000" class="active-path" data-old_color="#000000" fill="#FFFFFF"/><path d="m475.442 226.058c-18.584-20.633-44.222-32.289-74.495-33.98l.006-47.931c0-3.979-1.58-7.795-4.394-10.608s-6.629-4.394-10.608-4.394l-361.924.036c-8.282.001-14.997 6.715-14.998 14.998l-.029 254.039c-.003 30.32 11.853 58.875 33.383 80.405 21.525 21.525 50.067 33.377 80.376 33.377h.024l164.363-.036c59.149-.013 107.896-45.394 113.276-103.157 30.501-1.585 56.328-13.256 75.02-34.009 17.771-19.732 27.558-46.143 27.558-74.37 0-28.228-9.787-54.64-27.558-74.37zm-104.518 172.124c-.005 46.188-37.59 83.772-83.783 83.782l-164.364.036c-.007 0-.012 0-.019 0-22.293 0-43.305-8.733-59.163-24.59-15.863-15.863-24.598-36.883-24.595-59.188l.027-239.042 331.924-.033zm82.227-43.462c-12.784 14.194-30.701 22.408-52.151 23.996v-156.575c49.403 3.68 72 42.29 72 78.287 0 20.799-7.049 40.081-19.849 54.292z" data-original="#000000" class="active-path" data-old_color="#000000" fill="#FFFFFF"/><path d="m150 104.998c8.282 0 14.997-6.713 15-14.995h107c24.813 0 44.999-20.187 44.999-45 0-24.815-20.186-45.003-44.999-45.003h-38.001c-8.284 0-15 6.716-15 15s6.716 15 15 15h38.001c8.271 0 14.999 6.73 14.999 15.002 0 8.271-6.729 15-14.999 15h-107.998c-15.992 0-29.002 13.011-29.002 29.003v.993c0 8.284 6.716 15 15 15z" data-original="#000000" class="active-path" data-old_color="#000000" fill="#FFFFFF"/></g></g> </svg>
